<svg viewBox="0 0 18 18" fill="none" xmlns="http://www.w3.org/2000/svg" xmlns:xlink="http://www.w3.org/1999/xlink" x="0" y="0"><g id="Component 1">
<path id="Vector_5" d="M16.92,9.188c0,-0.585 -0.052,-1.148 -0.15,-1.688h-7.77v3.195h4.44c-0.195,1.028 -0.78,1.898 -1.657,2.483v2.077h2.677c1.56,-1.44 2.46,-3.555 2.46,-6.067z" fill="#4285F4"/>
<path id="Vector_6" d="M9,17.25c2.228,0 4.095,-0.735 5.46,-1.995l-2.677,-2.077c-0.735,0.495 -1.673,0.795 -2.783,0.795c-2.145,0 -3.967,-1.448 -4.62,-3.398h-2.745v2.13c1.358,2.693 4.14,4.545 7.365,4.545z" fill="#34A853"/>
<path id="Vector_7" d="M4.38,10.568c-0.165,-0.495 -0.263,-1.02 -0.263,-1.568c0,-0.547 0.098,-1.072 0.263,-1.567v-2.13h-2.745c-0.562,1.11 -0.885,2.362 -0.885,3.697c0,1.335 0.323,2.588 0.885,3.698l2.138,-1.665z" fill="#F79009"/>
<path id="Vector_8" d="M9,4.035c1.215,0 2.295,0.42 3.158,1.23l2.362,-2.362c-1.432,-1.335 -3.292,-2.153 -5.52,-2.153c-3.225,0 -6.007,1.853 -7.365,4.553l2.745,2.13c0.653,-1.95 2.475,-3.398 4.62,-3.398z" fill="#EA4335"/>
</g></svg>